<?xml version="1.0" encoding="UTF-8"?>
<svg id="Layer_1" data-name="Layer 1" xmlns="http://www.w3.org/2000/svg" viewBox="0 0 561.37 303.53">
  <defs>
    <style>
      .cls-1 {
        fill: #fff;
      }
    </style>
  </defs>
  <path class="cls-1" d="M139.13,137.39c-4.54.38-10.1-1.35-12.95-7.04-3.71,6.23-9.92,10.82-19.84,11.65-22.02,1.85-37.14-14.99-39.31-40.88-2.85-33.95,16.89-61,43.11-63.2,15.3-1.28,28.07,5.77,29.12,18.21.96,11.43-7.81,17.92-15.7,18.58-2.52.21-4.26-.32-4.48-3.01-.2-2.35.82-4.3.44-8.84-.54-6.39-4.67-13.32-11.23-12.77-12.1,1.02-22.43,23.21-20.59,45.06,1.58,18.82,8.9,33.44,22.51,32.3,12.61-1.06,12.82-22.74,12.56-29.83-3.07-.25-5.45-.39-7.13-.25-5.71.48-7.1,2.12-8.11,2.2-1.51.13-2.19-3.88-2.29-5.06-.54-6.39,3.09-11.6,9.81-12.16,6.05-.51,9.8-.15,20.06-1.01,7.9-.66,10.46-4.43,12.14-4.57.84-.07,1.89,2.38,2.11,4.9.44,5.21-1.35,14.16-8.13,16.09-.45,4.78-.48,10.36.04,16.58,1.09,12.94,5.37,15.63,5.51,17.31.23,2.69-2.94,5.33-7.64,5.72Z"/>
  <path class="cls-1" d="M200.61,87.38c1.72.36,3.18,1.59,3.49,5.29.56,6.72-1.84,12.34-1.34,18.39.48,5.71,3,7.53,6.2,7.27,6.22-.52,9.27-8.56,9.82-18.09,0,0,4.26.32,4.71,5.7.45,5.38-2.34,22.54-17.64,23.82-5.55.47-10.97-1.62-14.43-6.57-3.23,5.86-8.43,10.52-15.15,11.09-9.24.78-20-4.42-21.39-20.89-1.78-21.18,9.81-42.46,28.13-44,9.75-.82,17.38,3.45,18.13,12.36.18,2.18,0,4.06-.54,5.63ZM189.05,96.81l-1.35.11c-3.02.25-5.62-.38-5.78-2.39-.18-2.19,2.56-5.8,2.12-11.01-.2-2.35-1.51-3.94-3.36-3.78-6.55.55-11.1,14.98-10.13,26.58.66,7.9,3.68,15.6,8.89,15.16,5.38-.45,9.97-8.28,9.61-24.67Z"/>
  <path class="cls-1" d="M253.41,97.33s3.92.35,4.37,5.73-4.85,24.95-20.14,26.23c-12.77,1.07-18.41-9.63-19.34-20.72-1.76-21.01,3.03-34.44.86-60.33-1.17-13.95-4.11-18.78-4.32-21.3-.16-1.85,1.76-3.19,5.29-3.49,11.93-1,19.01,4.67,19.67,12.57,1.68,20-6.85,45.43-4.89,68.79.75,8.91,4.7,11.62,7.89,11.35,6.05-.51,10.05-9.31,10.61-18.83Z"/>
  <path class="cls-1" d="M270.47,70.68c2.09-3.39,6.1-7.96,14-8.62,11.6-.97,19.12,8.04,20.38,23,1.86,22.19-9.07,39.18-27.39,40.72-13.78,1.16-23.08-6.7-24.2-20.14-1.23-14.62,2.46-43.37,1.03-60.34-1.17-13.95-4.11-18.78-4.32-21.3-.16-1.85,1.76-3.19,5.29-3.49,11.93-1,19.01,4.67,19.67,12.57.86,10.25-2.27,23.38-4.46,37.61ZM280.57,114.35c7.73-.65,9.56-13.16,8.57-24.92-.71-8.4-3.45-14.94-8.5-14.52-7.56.63-7.73,12.83-11.09,13.12-.34.03-.68-.11-.87-.27-.15,4.24-.15,8.31.2,12.51.79,9.41,5.29,14.62,11.68,14.08Z"/>
  <path class="cls-1" d="M328.63,73.93c3.43-9.6,8.97-18.19,18.38-18.98,6.39-.54,12.37,2.18,13.15,11.42.87,10.42-7.46,16.03-13,16.49-2.69.23-4.81-.78-4.99-2.97-.14-1.68.74-3.28.59-5.13-.17-2.02-1.14-3.46-2.65-3.33-7.06.59-11.38,19.74-10.25,33.19.41,4.88,1.15,9.72,1.27,11.07.28,3.36-1.87,5.91-5.91,6.25-5.21.44-12.85-3.83-13.78-14.92-.61-7.23,1.99-24.71,1.4-31.77-.68-8.07-2.37-10.13-2.58-12.65-.14-1.68,1.65-2.51,3.67-2.68,5.55-.47,12.41,4.71,14.72,14Z"/>
  <path class="cls-1" d="M408.19,69.96c1.72.36,3.18,1.59,3.49,5.29.56,6.72-1.84,12.34-1.34,18.39.48,5.71,3,7.53,6.2,7.27,6.22-.52,9.27-8.56,9.82-18.09,0,0,4.26.32,4.71,5.7s-2.34,22.54-17.64,23.82c-5.55.47-10.97-1.62-14.43-6.57-3.23,5.86-8.43,10.52-15.15,11.09-9.24.78-20-4.42-21.39-20.89-1.78-21.18,9.81-42.46,28.13-44,9.75-.82,17.38,3.45,18.13,12.36.18,2.18,0,4.06-.54,5.63ZM396.63,79.4l-1.35.11c-3.02.25-5.62-.38-5.78-2.39-.18-2.19,2.56-5.8,2.12-11.01-.2-2.35-1.51-3.94-3.36-3.78-6.55.55-11.1,14.98-10.13,26.58.66,7.9,3.68,15.6,8.89,15.16,5.38-.45,9.97-8.28,9.61-24.67Z"/>
  <path class="cls-1" d="M425.99,64.24c-.73-8.74-2.84-9.58-2.94-10.76-.14-1.68,2.11-3.05,5.48-3.34,10.76-.9,15.06,6.01,15.48,11.06.52,6.22-2.48,20.86-1.75,29.6.63,7.56,3.7,9.85,6.22,9.63,6.72-.56,10.02-13.71,10.98-20.39,0,0,4.15,1.01,4.53,5.54.45,5.38-3.99,25.05-18.95,26.3-12.78,1.07-18.41-9.63-19.34-20.72-.55-6.55.83-20.38.28-26.94ZM435.46,41.95c-6.89.58-9.9-3.06-10.3-7.77-.59-7.06,3.91-13.87,11.48-14.5,5.71-.48,10.21,2.7,10.75,9.08.59,7.06-5.71,12.67-11.93,13.19Z"/>
  <path class="cls-1" d="M459.82,49.89l1.01-.08c.32-4.26.3-8.49-.05-12.69-1.04-12.44-3.52-13.75-3.73-16.27-.16-1.85,1.77-3.2,5.29-3.49,11.93-1,16.67,5.03,17.14,10.58.31,3.7-.67,10.21-1.85,18.27,6.89-2.61,9.86-5.57,10.7-5.64,2.19-.18,3.66,3.25,3.94,6.61.8,9.58-6.48,11.54-16.23,12.36-.7,7.85-1,16.33-.31,24.57.75,8.91,5.92,12.03,9.45,11.73,6.39-.54,11.39-9.42,11.95-18.94,0,0,4.09.33,4.54,5.71.45,5.38-4.68,24.93-21.32,26.33-12.77,1.07-19.59-9.53-20.52-20.62-.92-10.92-.33-20.11.31-28.63-1.88-.18-3.42-.39-3.95-.68-3.45-.73-5.24-3.96-5.44-6.31-.11-1.34.29-2.56,1.3-2.65,1.18-.1,4.24.15,7.77-.14Z"/>
  <path class="cls-1" d="M549.64,51.15c.72,8.57-1.78,21.14-1.2,28.03,1.17,13.95,7.49,16.64,7.66,18.65.21,2.52-2.97,4.99-7.51,5.37-11.76.99-16.21-7.61-16.94-16.35-.87-10.42,2.86-18.35,2.2-26.25-.27-3.19-2.13-5.24-4.65-5.03-7.4.62-13.99,24.87-12.6,41.51.47,5.55-1.12,8.9-5.32,9.25-5.21.44-13.18-3.8-14.11-14.9-1.3-15.46,2.51-40.66.34-66.55-1.17-13.95-4.11-18.78-4.32-21.3-.16-1.85,1.76-3.19,5.12-3.48,11.93-1,19.01,4.67,19.67,12.57,1.38,16.47-5.12,33.77-6.23,54.85,4.33-12.89,11.92-27.4,24.19-28.43,6.55-.55,12.94,2.98,13.7,12.05Z"/>
  <path class="cls-1" d="M101.69,200.4c3.43-9.6,8.97-18.19,18.38-18.98,6.39-.54,12.37,2.18,13.14,11.42.87,10.42-7.45,16.03-13,16.49-2.69.23-4.8-.78-4.99-2.97-.14-1.68.74-3.28.58-5.13-.17-2.02-1.14-3.46-2.65-3.33-7.06.59-11.37,19.74-10.25,33.19.41,4.88,1.15,9.72,1.27,11.07.28,3.36-1.88,5.91-5.91,6.25-5.21.44-12.85-3.83-13.78-14.92-.61-7.23,1.99-24.71,1.4-31.77-.68-8.07-2.37-10.13-2.58-12.65-.14-1.68,1.65-2.51,3.67-2.68,5.55-.47,12.41,4.71,14.72,14Z"/>
  <path class="cls-1" d="M181.25,196.43c1.72.36,3.18,1.59,3.49,5.29.56,6.72-1.84,12.34-1.34,18.39.48,5.71,3,7.53,6.2,7.27,6.22-.52,9.27-8.56,9.82-18.09,0,0,4.26.32,4.71,5.7.45,5.38-2.34,22.54-17.64,23.82-5.55.47-10.97-1.62-14.43-6.57-3.23,5.86-8.43,10.52-15.15,11.09-9.24.78-20-4.42-21.39-20.89-1.78-21.18,9.81-42.46,28.13-44,9.75-.82,17.38,3.45,18.13,12.36.18,2.18,0,4.06-.54,5.63ZM169.68,205.87l-1.35.11c-3.02.25-5.62-.38-5.78-2.39-.18-2.19,2.56-5.8,2.12-11.01-.2-2.35-1.51-3.94-3.36-3.78-6.55.55-11.1,14.98-10.13,26.58.66,7.9,3.68,15.6,8.89,15.16,5.38-.45,9.97-8.28,9.61-24.67Z"/>
  <path class="cls-1" d="M206.3,208.55c.07.84-.28,2.73-.08,5.09.76,9.08,7.88,13.22,14.77,12.64,4.37-.37,6.67-3.27,6.33-7.3-.89-10.59-28.26-7.95-29.76-25.94-.78-9.24,5.97-19.63,20.26-20.82,7.56-.63,17.8,2.4,18.37,9.12.51,6.05-4.14,11.18-7.67,11.48-.67.06-1.2-.24-1.6-.88-3.7-5.78-8.02-8.81-13.23-8.37-4.2.35-5.19,2.64-5.04,4.49.76,9.08,31.78,5.63,33.46,25.63.99,11.77-8.36,23.38-25.17,24.79-13.11,1.1-22.13-5.59-22.97-15.51-.58-6.89,2.96-15.14,9.85-15.72,1.68-.14,2.4.31,2.48,1.32Z"/>
  <path class="cls-1" d="M256.72,204.32c.07.84-.28,2.73-.08,5.09.76,9.08,7.88,13.22,14.77,12.64,4.37-.37,6.67-3.27,6.33-7.3-.89-10.59-28.26-7.95-29.77-25.94-.78-9.24,5.97-19.63,20.26-20.82,7.56-.63,17.81,2.4,18.37,9.12.51,6.05-4.14,11.18-7.67,11.48-.67.06-1.2-.24-1.59-.88-3.7-5.78-8.02-8.81-13.23-8.37-4.2.35-5.19,2.64-5.04,4.49.76,9.08,31.78,5.63,33.46,25.63.99,11.77-8.36,23.38-25.17,24.79-13.11,1.1-22.13-5.59-22.97-15.51-.58-6.89,2.96-15.14,9.85-15.72,1.68-.14,2.4.31,2.48,1.32Z"/>
  <path class="cls-1" d="M314.81,182.52c3.43-9.6,8.97-18.19,18.38-18.98,6.39-.54,12.37,2.18,13.15,11.42.87,10.42-7.46,16.03-13,16.49-2.69.23-4.81-.78-4.99-2.97-.14-1.68.74-3.28.59-5.13-.17-2.02-1.14-3.46-2.65-3.33-7.06.59-11.38,19.74-10.25,33.19.41,4.88,1.15,9.72,1.27,11.07.28,3.36-1.87,5.91-5.91,6.25-5.21.44-12.85-3.83-13.78-14.92-.61-7.23,1.99-24.71,1.4-31.77-.68-8.07-2.37-10.13-2.58-12.65-.14-1.68,1.65-2.51,3.67-2.68,5.55-.47,12.41,4.71,14.72,14Z"/>
  <path class="cls-1" d="M382.63,161.76c.32-.2.83-.24,1.33-.28,9.07-.76,13.76,6.63,15.52,19.52l2.02-.17c8.4-.71,13.67-6.56,14.85-12.59,1.91.52,3.56,2.07,3.84,5.43.79,9.41-9.7,15.54-20.27,16.6-.26,19.15-9.72,33.48-25.35,34.79-13.78,1.16-24.39-8.28-25.74-24.41-1.64-19.5,10.3-38.61,26.27-39.95,2.69-.23,5.25.07,7.54,1.06ZM386.45,189.03c-6.98-2.46-10.79-7.56-11.34-14.11-.13-1.51-.1-3.21.43-4.95l-.34.03c-5.71.48-10.1,14.73-9.02,27.67.79,9.41,4.77,16.52,10.32,16.06,7.56-.63,10.75-13.09,9.94-24.7Z"/>
  <path class="cls-1" d="M468.07,167.29h-12.02c1.46,3.26,2.31,7.41,2.72,12.29,1.86,22.19-7.72,39.07-25.03,40.52-13.78,1.16-24.39-8.28-25.74-24.41-1.64-19.5,10.3-38.61,26.27-39.95,3.87-.32,7.49.56,9.85,2.39,1.35-.11,4.24.15,7.77-.14,6.55-.55,12.24-1.37,17.09-2.11.16-4.08.18-7.97-.16-12-1.04-12.44-3.52-13.75-3.73-16.27-.16-1.85,1.76-3.19,5.29-3.49,11.93-1,16.67,5.03,17.14,10.58.3,3.53-.71,9.71-1.62,17.06,7.09-2.29,9.79-4.38,10.46-4.43,2.19-.18,3.66,3.25,3.94,6.61.8,9.58-6.48,11.54-16.23,12.36-.7,7.85-1,16.33-.31,24.57.75,8.91,5.25,12.09,10.12,11.68,7.9-.66,13.58-9.6,14.14-19.13,0,0,4.09.33,4.54,5.71.45,5.38-5.52,25.01-23.5,26.51-13.28,1.11-20.26-9.47-21.19-20.56-.87-10.42-.46-19.59.21-27.78ZM443.11,172.43c-.64.39-1.31.45-1.82.49-3.36.28-2.39-8.26-6.93-7.88-5.71.48-10.1,14.73-9.02,27.67.79,9.41,4.77,16.52,10.32,16.06,7.73-.65,10.9-13.27,9.92-25.04-.34-4.03-1.18-8.03-2.47-11.3Z"/>
  <path class="cls-1" d="M514.55,182.68c.07.84-.28,2.73-.08,5.09.76,9.08,7.88,13.22,14.77,12.64,4.37-.37,6.67-3.27,6.33-7.3-.89-10.59-28.26-7.95-29.77-25.94-.78-9.24,5.97-19.63,20.26-20.82,7.56-.63,17.81,2.4,18.37,9.12.51,6.05-4.14,11.18-7.67,11.48-.67.06-1.2-.24-1.6-.88-3.7-5.78-8.02-8.81-13.23-8.37-4.2.35-5.19,2.64-5.04,4.49.76,9.08,31.78,5.63,33.46,25.63.99,11.77-8.36,23.38-25.17,24.79-13.11,1.1-22.13-5.59-22.97-15.51-.58-6.89,2.96-15.14,9.85-15.72,1.68-.14,2.4.31,2.48,1.32Z"/>
  <g>
    <path class="cls-1" d="M309.3,282.16c1.83-.2,3.44-.46,4.75-.74-.67-4.93-1.46-7.7-2.35-8.53-.55,3.23-1.62,6.24-2.4,9.27Z"/>
    <path class="cls-1" d="M295,277.55c-.16-2.26-1.75-4.04-5.25-3.79-.38.03-.72.09-1.06.12-.15,2.2-.32,5.82-.42,9.3.21-.1.42-.16.67-.18.73-.05,1.46.03,2.12.19,2.26-.8,4.13-2.91,3.94-5.64Z"/>
    <path class="cls-1" d="M443.69,261.09c-.31-2.25-2.01-3.91-5.49-3.43-.38.05-.72.14-1.05.19,0,2.2.08,5.83.21,9.31.2-.11.41-.19.66-.22.72-.1,1.46-.07,2.13.05,2.2-.96,3.92-3.18,3.55-5.9Z"/>
    <path class="cls-1" d="M554.9,222.65c-2.52.21-61.96,17.15-253.63,36.61-199.85,20.28-222.44,3.66-229.99,2.43,2.98-8.88,3.95-19.46,3.67-30.94l-.5-16.04c1.54-3.85,1.81-6.75,1.59-9.27-.32-3.87-3.65-7.14-5.97-8.64-2.49-1.48-5.62-2.4-8.31-2.18-6.05.51-8.43,6.46-8.03,11.17,1.02,12.1,1.63,15.43,2.28,19.1-3.18,6.53-8.41,12.72-15.47,13.32-11.09.93-18.03-11.18-19.61-30.01-1.83-21.85,8.49-44.04,20.59-45.06,6.55-.55,10.69,6.38,11.23,12.77.38,4.54-.64,6.49-.44,8.84.23,2.69,1.96,3.22,4.48,3.01,7.9-.66,16.66-7.15,15.7-18.58-1.04-12.44-13.82-19.49-29.12-18.21-26.22,2.2-45.95,29.24-43.11,63.2,2.17,25.88,15.99,39.28,35.99,37.6,9.92-.83,16.64-5.46,20.88-11.4.3,7.59-.37,13.74-1.64,18.76-6.87-1.12-13.52-1.74-19.4-1.25-12.77,1.07-19.48,7.9-18.72,16.97.8,9.58,11.66,13.92,22.25,13.03,11.6-.97,19.65-5.88,25.27-13.46,11.21,4.48,145.59,40.58,290.62,25.43,107.83-11.26,180.55-18.15,198.07-30.62,15.54-11.06,3.32-46.74,1.31-46.57ZM37.89,279.21c-4.04.34-8.1-1.69-8.42-5.56-.35-4.2,2.8-7.01,6.5-7.32,4.37-.37,9.72.88,15.65,2.92-3.84,6.75-9.02,9.56-13.72,9.95ZM279.2,291.34c.18,3.29,1.25,4.01,1.28,4.43.04.68-.78,1.33-1.98,1.4-1.15.06-2.55-.42-3.24-1.88-.99,1.56-2.6,2.68-5.12,2.82-5.6.31-9.32-4.07-9.68-10.66-.48-8.64,4.72-15.36,11.4-15.73,3.89-.22,7.09,1.67,7.26,4.83.16,2.91-2.11,4.49-4.12,4.6-.64.04-1.08-.11-1.12-.8-.03-.6.24-1.09.18-2.24-.09-1.63-1.09-3.42-2.76-3.32-3.08.17-5.86,5.73-5.55,11.29.26,4.79,2.02,8.55,5.48,8.36,3.21-.18,3.42-5.68,3.4-7.48-.78-.08-1.38-.14-1.81-.11-1.45.08-1.82.49-2.07.5-.38.02-.53-1-.54-1.3-.09-1.63.87-2.92,2.58-3.02,1.54-.09,2.49.03,5.1-.11,2.01-.11,2.69-1.05,3.11-1.07.21-.01.46.62.5,1.26.07,1.32-.44,3.58-2.18,4.02-.15,1.21-.2,2.63-.11,4.21ZM298.85,296.13c-3.97.28-6.01-7.94-9.66-10.26h-.13c-.26.03-.56-.04-.87-.19-.04,2.53-.05,4.81.05,6.14.2,2.82.57,3.18.6,3.61.05.77-1.02,1.36-2.13,1.44-1.45.1-3.4-.66-3.59-3.48-.26-3.63.29-12.21.96-17.97-.96.45-1.57.84-1.83.86-.21.01-.56-.05-.61-.69-.13-1.88,4.39-4.73,9.47-5.09,4.31-.3,8.46,1.29,8.78,5.82.28,3.93-2.09,6.84-5.76,8.39,2.22,1.64,3.98,4.1,5.62,6.04,1.03,1.26,1.77,1.42,2.33,1.38.26-.02.39.06.41.36.14,1.92-1.64,3.51-3.65,3.65ZM320.55,294.36c-4.18.35-5.37-2.6-5.94-8.35-.03-.38-.11-.76-.14-1.15-1.58.09-4.02.17-5.83.15-.29,1.7-.44,3.47-.28,5.31.24,2.82.89,3.4.94,4,.05.6-.61.95-1.33,1.01-2.18.18-4.41-.36-4.65-3.18-.49-5.8,5.72-14.31,5.89-21.5.02-.78.26-1.57,1.32-1.66,3.33-.28,6.15,1.07,7.14,4.64.56,2.06.85,4.01,1.19,6.52,1.01-.3,1.59-.56,1.93-.59.51-.04.76.41.82,1.05.06.77-.2,1.74-.75,2.38-.39.42-.88.76-1.46,1.03.04.42.11.81.19,1.27.96,6.32,3.28,6.86,3.33,7.45.05.6-.74,1.48-2.36,1.62ZM331.77,293.81c-2.9.28-4.82-1.87-5.83-4.31-1.39-3.35-2.03-8.2-2.4-12.16-.56-5.93-1.39-7.87-1.45-8.47-.06-.64.43-.9,1.5-1,2.73-.26,5.13,1.54,5.39,4.18.07.72.19,3.85.52,7.3.75,7.93,2.03,10.99,3.61,10.84,2.56-.24,4.21-7.75,3.71-13-.6-6.35-3.21-7.09-3.26-7.65-.06-.6.92-2.58,3.26-2.81,2.13-.2,4.57,1.07,4.96,5.16,1.03,10.87-4.13,21.34-10.01,21.9ZM348.57,291.68c-1.75.18-3.77-.65-4.06-3.46-.4-3.92.28-9.46-.39-16.02-.36-3.54-.92-4.81-.99-5.45-.05-.47.43-.82,1.28-.91,3.03-.31,5.02,1.12,5.23,3.12.31,3.02-.56,12.62-.06,17.52.29,2.81,1.26,3.1,1.31,3.53.1.98-1.52,1.58-2.33,1.66ZM365.66,269.45c-1.32.14-2.47.23-3.55.21-.12,3.67,0,10.34.49,14.77.35,3.24,1.15,3.41,1.22,4.09s-1.17,1.55-2.66,1.71c-1.36.15-3.31-.29-3.69-3.82-.61-5.58-.5-12.48-.17-17.04-.91-.07-1.69-.12-2.42-.04-2.98.32-2.82,1.04-3.33,1.09-.6.06-.8-1.03-.84-1.37-.21-1.91.58-3.72,2.84-3.97,1.87-.21,4.97.1,10.46-.49,2.81-.31,3.72-1.48,4.23-1.54.43-.05.76.61.85,1.46.18,1.62-.57,4.63-3.43,4.94ZM381.69,282.27c.38,3.23,1.17,3.4,1.25,4.08.08.68-1.16,1.56-2.64,1.73-1.36.16-3.31-.26-3.72-3.79-.26-2.26-.2-4.72-.14-7.14-3.22-3.25-7.08-8.19-7.31-10.23-.23-1.96,2.55-4.01,3.62-4.13,1.49-.17.55.67,2.29,4.09,1.52,3.02,3.51,5.33,4.82,6.56,1.96-2.81,2.9-5.51,2.56-8.4-.15-1.28-.65-1.91-.7-2.33-.06-.55.54-.92,1.48-1.04,2-.23,4.37.87,4.63,3.08.36,3.06-2.99,7.29-6.27,11.34,0,2.2-.05,4.4.16,6.19ZM404.61,285.39c-5.65.72-8.6-2.15-9.03-5.5-.42-3.31,1.96-5,3.66-5.21,1.27-.16,2.22.45,2.28.96.06.51-.88.89-.64,2.76.35,2.8,2.7,3.98,4.91,3.69,2.08-.26,3.32-1.76,3.08-3.63-.66-5.18-11.75-3.82-12.69-11.3-.53-4.16,2.8-7.52,7.22-8.08,3.53-.45,6.99.63,7.35,3.47.24,1.91-1.06,3.59-1.86,3.69-.59.08-.82-.67-1.72-1.64-.85-.93-2.33-2.38-4.54-2.1-1.91.24-2.44,1.56-2.31,2.58.54,4.25,11.83,3.12,12.82,10.9.52,4.12-2.15,8.6-8.52,9.41ZM428.16,282.19c-2.38.32-4.7-.24-6.52,0-1.83.24-2.71.71-3.35.79-.98.13-2.66-.16-3.03-2.97-.52-3.91,0-9.46-.88-16-.47-3.52-.74-3.96-.83-4.6-.12-.93.45-1.49,1.6-1.64,1.32-.18,2.82.06,5.19-.26,6.45-.86,7.69-1.97,8.37-2.06.34-.05.51.28.6.96.45,3.35-2.05,4.42-5.1,4.83-1.15.15-2.78.2-4.38.19-.05,1.87-.07,4.68-.02,7.61,7.02-1.15,7.23-2.48,8.12-2.59.47-.06.74.38.82.97.1.76-.11,1.79-.67,2.46-.89,1.11-2.54,1.68-5,2.01-.93.12-2,.22-3.2.3.12,2.49.25,4.81.48,6.5.98-.43,2.03-.66,3.09-.8,1.15-.15,2.3-.22,3.45-.37,2.46-.33,2.78-1.49,3.25-1.56.68-.09,1.13,1.32,1.21,1.91.21,1.57-.3,3.93-3.19,4.31ZM448.78,279.36c-3.94.55-6.54-7.52-10.33-9.59l-.13.02c-.25.04-.56,0-.88-.14.14,2.53.28,4.8.46,6.12.39,2.8.78,3.13.84,3.56.11.76-.93,1.42-2.03,1.58-1.44.2-3.43-.43-3.82-3.23-.5-3.61-.53-12.2-.26-17.99-.92.52-1.51.94-1.77.98-.21.03-.56,0-.65-.64-.26-1.87,4.06-5.02,9.1-5.72,4.28-.6,8.53.72,9.15,5.21.54,3.9-1.62,6.97-5.18,8.76,2.33,1.49,4.25,3.82,6.02,5.65,1.12,1.19,1.87,1.3,2.42,1.22.25-.04.39.03.43.33.27,1.91-1.4,3.61-3.39,3.89ZM457.51,278.1c-1.74.25-3.79-.49-4.2-3.29-.56-3.9-.11-9.46-1.05-15.99-.51-3.52-1.12-4.77-1.21-5.41-.07-.47.4-.84,1.25-.96,3.01-.43,5.06.91,5.35,2.91.43,3.01-.04,12.64.67,17.51.4,2.8,1.39,3.04,1.45,3.47.14.98-1.45,1.64-2.26,1.75ZM475.13,275.52c-2.37.35-4.7-.17-6.52.1-1.82.27-2.7.75-3.34.84-.97.14-2.66-.13-3.07-2.92-.58-3.9-.14-9.46-1.11-15.98-.52-3.52-.8-3.95-.9-4.58-.14-.93.43-1.49,1.57-1.66,1.31-.19,2.82.02,5.19-.33,6.44-.95,7.65-2.09,8.33-2.19.34-.05.52.27.62.95.49,3.34-1.98,4.45-5.03,4.9-1.14.17-2.78.24-4.38.26-.03,1.86,0,4.67.09,7.6,7-1.25,7.19-2.58,8.08-2.71.47-.07.75.36.83.96.11.76-.08,1.79-.63,2.47-.87,1.12-2.52,1.71-4.97,2.08-.93.14-2,.25-3.19.34.15,2.49.32,4.8.57,6.49.97-.45,2.02-.69,3.08-.85,1.14-.17,2.3-.25,3.44-.42,2.46-.36,2.76-1.53,3.22-1.6.68-.1,1.14,1.3,1.23,1.89.23,1.57-.24,3.93-3.12,4.36ZM487.22,273.81c-5.63.87-8.66-1.92-9.17-5.26-.51-3.3,1.82-5.05,3.52-5.31,1.27-.19,2.23.39,2.31.9.08.51-.86.91-.57,2.77.43,2.79,2.81,3.9,5.01,3.56,2.07-.32,3.27-1.85,2.98-3.71-.8-5.16-11.85-3.5-13-10.95-.64-4.15,2.6-7.59,7-8.27,3.51-.54,7,.44,7.44,3.27.29,1.9-.96,3.61-1.76,3.74-.59.09-.84-.65-1.76-1.59-.88-.91-2.39-2.32-4.59-1.98-1.9.29-2.39,1.63-2.24,2.64.65,4.23,11.91,2.8,13.11,10.55.63,4.11-1.92,8.66-8.27,9.64Z"/>
  </g>
</svg>